<?xml version="1.0" encoding="UTF-8"?><svg id="Layer_2" xmlns="http://www.w3.org/2000/svg" xmlns:xlink="http://www.w3.org/1999/xlink" viewBox="0 0 225.63 225.63"><defs><style>.cls-1{fill:url(#linear-gradient);}.cls-2{fill:#fff;}</style><linearGradient id="linear-gradient" x1="112.82" y1="225.63" x2="112.82" y2="0" gradientUnits="userSpaceOnUse"><stop offset="0" stop-color="#7a00e5"/><stop offset=".34" stop-color="#6500c0"/><stop offset="1" stop-color="#41007e"/></linearGradient></defs><g id="Layer_1-2"><path class="cls-2" d="M154.16,152.65c29.22-31.14,38.1-74.75-1.26-91.13-4.55-1.89-13.6-5.65-17.68-1.71-2.88,2.78-4.29,11.74-5.5,15.81-2.96,10-6.3,19.91-9.33,29.89-6.11,20.14-9.79,29.34-17.39,48.98-.37.1-.4-.1-.61-.24-.91-.62-2.19-2.12-3.15-2.9-13.57-11.12-37.16-10.04-51.31,5.92-16.59,18.7,10.9,36.92,27.88,38.95,30.22,3.62,32.15-25.49,38.52-46.88,4.18-14.03,9.43-27.75,13.69-41.76,2.04-6.72,3.78-13.53,5.66-20.29,19.75-.78,24.16,23.65,22.79,43.59-.45,6.58-3.41,13.34-4.96,19.73-.35,1.45-1,3.8-1.09,5.21-.02.29.01.51.36.36.58-.25,2.76-2.89,3.37-3.54Z"/><circle class="cls-1" cx="112.82" cy="112.82" r="112.82"/><path class="cls-2" d="M149.83,128.65c-.58.52-3.01-.31-2.49-1.51,12.12-28.03,14.6-57.52-10.49-68.46-3.02,11.8-10.03,51.06-12.9,63.54-4.31,18.75-4.4,42.62-34.58,49.91-20.64,4.99-45.03-12.59-32.49-30.5,8.21-11.74,35.74-17.44,48.62-9.1.91.59,2.17,1.76,3.02,2.21.19.1.24.27.55.15,4.66-17.83,13.84-62.25,15.42-71.24.46-2.59,3.04-12.91,4.17-17.12.78-2.92,3.85-4.63,6.72-3.7s24.06,11.07,32.69,27.58c4.8,9.18,10.45,32.65-18.24,58.23Z"/></g></svg>